<?xml version="1.0" encoding="UTF-8" standalone="no"?>
<!-- Generator: Adobe Illustrator 23.0.4, SVG Export Plug-In . SVG Version: 6.00 Build 0)  -->

<svg
   version="1.1"
   id="Layer_1"
   x="0px"
   y="0px"
   viewBox="0 0 2332.17 1499.1473"
   xml:space="preserve"
   sodipodi:docname="dandiset_propert.svg"
   width="2332.1699"
   height="1499.1473"
   inkscape:version="1.2 (dc2aeda, 2022-05-15)"
   xmlns:inkscape="http://www.inkscape.org/namespaces/inkscape"
   xmlns:sodipodi="http://sodipodi.sourceforge.net/DTD/sodipodi-0.dtd"
   xmlns="http://www.w3.org/2000/svg"
   xmlns:svg="http://www.w3.org/2000/svg"><defs
   id="defs87" /><sodipodi:namedview
   id="namedview85"
   pagecolor="#ffffff"
   bordercolor="#000000"
   borderopacity="0.25"
   inkscape:showpageshadow="2"
   inkscape:pageopacity="0.0"
   inkscape:pagecheckerboard="0"
   inkscape:deskcolor="#d1d1d1"
   showgrid="false"
   inkscape:zoom="0.35368524"
   inkscape:cx="1118.2259"
   inkscape:cy="718.15267"
   inkscape:window-width="1442"
   inkscape:window-height="750"
   inkscape:window-x="10"
   inkscape:window-y="38"
   inkscape:window-maximized="0"
   inkscape:current-layer="Artboard" />
<style
   type="text/css"
   id="style69">
	.st0{fill:#D3868D;}
	.st1{fill:#F0A5AC;}
	.st2{fill:#A05A60;}
	.st3{fill:#FFFFFF;}
	.st4{fill:#00436D;}
</style>
<g
   id="g5477"
   transform="translate(-242.63159,-390.18189)"><g
     id="Artboard"
     transform="translate(-28352.599,-16002.462)">
		
	<path
   style="fill:#000000;fill-opacity:0;stroke-width:5.6822"
   d="m 1838.1928,845.76444 c -119.1285,-5.03835 -222.2476,-23.88514 -248.1058,-45.34558 -5.5183,-4.57973 -7.5934,-23.88558 -7.5934,-70.64543 V 665.4299 l 31.0148,10.67064 c 69.8404,24.02863 143.9925,31.32235 318.4408,31.32235 174.5663,0 248.5944,-7.29169 318.6189,-31.38366 l 31.193,-10.73196 -1.5988,66.52115 -1.5987,66.52116 -20.6708,10.10723 c -61.4139,30.02922 -232.4063,45.22894 -419.7,37.30763 z"
   id="path2645"
   transform="translate(27770,16123)" /><path
   style="fill:#000000;fill-opacity:0;stroke-width:5.6822"
   d="m 1775.6886,1169.9219 c -68.0337,-5.9632 -137.7883,-19.8182 -169.0456,-33.5767 l -24.1494,-10.6299 v -71.955 c 0,-66.39179 0.7689,-71.61983 9.9439,-67.62012 60.2406,26.26092 174.0196,39.49752 339.5117,39.49752 165.492,0 279.271,-13.2366 339.5116,-39.49752 9.1751,-3.99971 9.9439,1.22833 9.9439,67.62012 v 71.955 l -24.1494,10.5965 c -75.6219,33.1821 -304.3326,49.1446 -481.5667,33.6101 z"
   id="path2647"
   transform="translate(27770,16123)" /><path
   style="fill:#000000;fill-opacity:0;stroke-width:5.6822"
   d="m 1775.6886,1169.9219 c -68.0337,-5.9632 -137.7883,-19.8182 -169.0456,-33.5767 l -24.1494,-10.6299 v -71.955 c 0,-66.39179 0.7689,-71.61983 9.9439,-67.62012 60.2406,26.26092 174.0196,39.49752 339.5117,39.49752 165.492,0 279.271,-13.2366 339.5116,-39.49752 9.1751,-3.99971 9.9439,1.22833 9.9439,67.62012 v 71.955 l -24.1494,10.5965 c -75.6219,33.1821 -304.3326,49.1446 -481.5667,33.6101 z"
   id="path2649"
   transform="translate(27770,16123)" /><path
   style="fill:#000000;fill-opacity:0;stroke-width:5.6822"
   d="m 1775.6886,1169.9219 c -68.0337,-5.9632 -137.7883,-19.8182 -169.0456,-33.5767 l -24.1494,-10.6299 v -71.955 c 0,-66.39179 0.7689,-71.61983 9.9439,-67.62012 60.2406,26.26092 174.0196,39.49752 339.5117,39.49752 165.492,0 279.271,-13.2366 339.5116,-39.49752 9.1751,-3.99971 9.9439,1.22833 9.9439,67.62012 v 71.955 l -24.1494,10.5965 c -75.6219,33.1821 -304.3326,49.1446 -481.5667,33.6101 z"
   id="path2651"
   transform="translate(27770,16123)" /><path
   style="fill:#000000;fill-opacity:0;stroke-width:5.6822"
   d="m 1838.1928,845.76444 c -119.1285,-5.03835 -222.2476,-23.88514 -248.1058,-45.34558 -5.5183,-4.57973 -7.5934,-23.88558 -7.5934,-70.64543 V 665.4299 l 31.0148,10.67064 c 69.8404,24.02863 143.9925,31.32235 318.4408,31.32235 174.5663,0 248.5944,-7.29169 318.6189,-31.38366 l 31.193,-10.73196 -1.5988,66.52115 -1.5987,66.52116 -20.6708,10.10723 c -61.4139,30.02922 -232.4063,45.22894 -419.7,37.30763 z"
   id="path2653"
   transform="translate(27770,16123)" /><path
   style="fill:#000000;fill-opacity:0;stroke-width:5.6822"
   d="m 1838.1928,692.69029 c -127.9541,-5.84449 -231.8915,-25.92038 -250.5422,-48.39313 -6.4303,-7.748 -5.9064,-10.33593 3.4821,-17.20098 64.398,-47.089 421.519,-63.10764 599.3567,-26.88412 47.4174,9.65837 90.9153,26.76 90.9153,35.74422 0,37.99341 -224.4604,66.72581 -443.2119,56.73401 z"
   id="path2655"
   transform="translate(27770,16123)" /><path
   style="fill:#000000;fill-opacity:0;stroke-width:5.6822"
   d="m 1838.1928,845.76444 c -119.1285,-5.03835 -222.2476,-23.88514 -248.1058,-45.34558 -5.5183,-4.57973 -7.5934,-23.88558 -7.5934,-70.64543 V 665.4299 l 31.0148,10.67064 c 69.8404,24.02863 143.9925,31.32235 318.4408,31.32235 174.5663,0 248.5944,-7.29169 318.6189,-31.38366 l 31.193,-10.73196 -1.5988,66.52115 -1.5987,66.52116 -20.6708,10.10723 c -61.4139,30.02922 -232.4063,45.22894 -419.7,37.30763 z"
   id="path2657"
   transform="translate(27770,16123)" /><text
   xml:space="preserve"
   style="fill:#000000;fill-opacity:0"
   x="30803.533"
   y="17051.141"
   id="text5691"><tspan
     sodipodi:role="line"
     id="tspan5689"
     x="30803.533"
     y="17051.141">Dan</tspan></text><text
   xml:space="preserve"
   style="fill:#000000;fill-opacity:0"
   x="30818.068"
   y="17243.678"
   id="text5699"><tspan
     sodipodi:role="line"
     id="tspan5697"
     x="30818.068"
     y="17243.678">DanDi</tspan></text><text
   xml:space="preserve"
   style="font-style:normal;font-variant:normal;font-weight:normal;font-stretch:normal;font-size:53.3333px;font-family:sans-serif;-inkscape-font-specification:'sans-serif, Normal';font-variant-ligatures:normal;font-variant-caps:normal;font-variant-numeric:normal;font-variant-east-asian:normal;fill:#000000;fill-opacity:0"
   x="30540.986"
   y="16720.615"
   id="text5757"><tspan
     sodipodi:role="line"
     id="tspan5755"
     x="30540.986"
     y="16720.615">rrrrrr</tspan></text><g
   id="g6481"
   transform="matrix(0.61222873,0,0,0.61222873,11638.693,6360.0583)"><g
     id="g4562"
     transform="matrix(66.345339,0,0,41.130561,29116.206,16647.773)"
     style="fill:#f0a5ac;fill-opacity:1"><ellipse
       cx="9"
       cy="2.8800001"
       rx="6"
       ry="1.88"
       id="ellipse4544"
       style="fill:#f0a5ac;fill-opacity:1" /><path
       d="M 14.91,3.53 C 14.41,4.41 11.91,5.08 9,5.08 6.09,5.08 3.81,4.47 3.17,3.64 A 0.1,0.1 0 0 0 3,3.7 V 7 C 3,8 5.69,8.84 9,8.84 12.31,8.84 15,8 15,7 V 3.55 Z"
       id="path4546"
       style="fill:#f0a5ac;fill-opacity:1" /><path
       d="M 14.91,7.62 C 14.41,8.5 11.91,9.17 9,9.17 6.09,9.17 3.81,8.56 3.17,7.73 A 0.1,0.1 0 0 0 3,7.79 v 3.26 c 0,1 2.69,1.88 6,1.88 3.31,0 6,-0.84 6,-1.88 V 7.64 Z"
       id="path4548"
       style="fill:#f0a5ac;fill-opacity:1" /><path
       d="m 14.91,11.69 c -0.5,0.88 -3,1.55 -5.91,1.55 -2.91,0 -5.19,-0.61 -5.83,-1.44 A 0.1,0.1 0 0 0 3,11.86 v 3.26 C 3,16.16 5.69,17 9,17 c 3.31,0 6,-0.84 6,-1.88 v -3.41 z"
       id="path4550"
       style="fill:#f0a5ac;fill-opacity:1" /></g><g
     id="g5586"
     transform="matrix(0.89517864,0,0,0.83919348,1267.8247,2990.1732)"
     style="image-rendering:auto"><g
       id="Group-5"
       transform="rotate(-40,37930.149,-34399.639)">

					<ellipse
   id="Oval-2"
   transform="rotate(179.99989,368.36285,451.61432)"
   cx="368.39999"
   cy="451.60001"
   rx="367.60001"
   ry="142" />
				<polygon
   id="Rectangle-5"
   points="628.7,433.2 127.9,433.2 100.1,83.1 656.5,83.1 " />

					<ellipse
   id="Oval-2-Copy-3"
   transform="rotate(179.99989,332.50041,93.290328)"
   class="st3"
   cx="332.5"
   cy="93.300003"
   rx="287.89999"
   ry="92.5" />

					<ellipse
   id="Oval-2-Copy-2"
   transform="rotate(179.99989,378.29822,83.112072)"
   cx="378.29999"
   cy="83.099998"
   rx="278.20001"
   ry="82.400002" />
			</g></g><text
     xml:space="preserve"
     style="font-style:normal;font-variant:normal;font-weight:bold;font-stretch:normal;font-size:106.667px;font-family:sans-serif;-inkscape-font-specification:'sans-serif, Bold';font-variant-ligatures:normal;font-variant-caps:normal;font-variant-numeric:normal;font-variant-east-asian:normal;white-space:pre;inline-size:790.232;display:inline;fill:#00436d;fill-opacity:1"
     x="29393.07"
     y="17291.744"
     id="text5753"
     transform="translate(11.309491,-152.67813)"><tspan
       x="29393.07"
       y="17291.744"
       id="tspan20635">DANDISET</tspan></text></g><text
   xml:space="preserve"
   style="font-style:normal;font-variant:normal;font-weight:normal;font-stretch:normal;font-size:48px;font-family:sans-serif;-inkscape-font-specification:'sans-serif, Normal';font-variant-ligatures:normal;font-variant-caps:normal;font-variant-numeric:normal;font-variant-east-asian:normal;fill:#ffffff;fill-opacity:1;stroke:#00436d;stroke-width:11.721;stroke-dasharray:none;stroke-dashoffset:0;stroke-opacity:1"
   x="28226.016"
   y="16847.852"
   id="text11912"><tspan
     sodipodi:role="line"
     id="tspan11910"
     x="28226.016"
     y="16847.852"></tspan></text><g
   id="g18581"
   transform="translate(149.85075,-97.544363)"><g
     id="g11070"
     transform="translate(0,5.6547454)"><ellipse
       style="fill:#000000;fill-opacity:0;stroke:#00436d;stroke-width:13.3626;stroke-dasharray:40.0878, 40.0878;stroke-dashoffset:0;stroke-opacity:1"
       id="path6483"
       cx="28744.875"
       cy="17496.781"
       rx="292.81409"
       ry="292.82159" /><ellipse
       style="fill:#00436d;fill-opacity:1;stroke:#00436d;stroke-width:12.3808;stroke-dasharray:none;stroke-dashoffset:0;stroke-opacity:1"
       id="path9510"
       cx="28757.562"
       cy="17201.822"
       rx="121.2466"
       ry="121.80429" /></g><path
     d="m 28809.914,17153.76 c -3.741,-21.743 -22.679,-37.875 -45.124,-37.875 -16.366,0 -31.329,8.65 -39.512,22.678 -1.403,-0.233 -3.039,-0.467 -4.441,-0.467 -14.029,0 -25.484,11.456 -25.484,25.484 0,1.637 0.233,3.273 0.467,4.91 -8.884,6.546 -14.028,17.067 -14.028,28.055 0,19.172 14.729,35.537 33.199,36.707 0,0 0.234,0 0.234,0 h 86.74 c 0,0 0.233,0 0.233,0 20.575,-1.403 36.706,-19.172 36.706,-40.213 0.234,-18.471 -12.157,-34.603 -28.99,-39.279 z m -8.184,69.439 h -86.505 c -12.859,-0.702 -23.613,-13.093 -23.613,-26.654 0,-8.884 4.676,-17.067 12.391,-21.509 2.104,-1.169 3.039,-3.741 2.104,-6.079 -0.701,-1.637 -0.935,-3.507 -0.935,-5.377 0,-8.417 7.014,-15.431 15.43,-15.431 1.871,0 3.508,0.234 5.144,0.935 2.338,0.935 5.144,-0.233 6.313,-2.571 5.845,-12.626 18.703,-20.575 32.497,-20.575 18.704,0 33.901,14.028 35.771,32.498 0.235,2.338 1.871,3.975 4.209,4.443 14.028,2.338 24.549,15.43 24.549,30.16 0,15.43 -12.158,28.99 -27.355,30.16 z m -41.148,21.509 c -2.806,0 -4.909,2.338 -4.909,4.91 v 16.365 c -8.184,2.105 -14.263,9.586 -14.263,18.47 0,10.522 8.651,19.172 19.172,19.172 10.521,0 19.172,-8.65 19.172,-19.172 0,-8.884 -6.079,-16.365 -14.262,-18.47 v -16.365 c 0,-2.806 -2.104,-4.91 -4.91,-4.91 z m 9.352,39.979 c 0,5.144 -4.208,9.353 -9.352,9.353 -5.144,0 -9.352,-4.209 -9.352,-9.353 0,-5.143 4.208,-9.352 9.352,-9.352 5.144,0 9.352,4.209 9.352,9.352 z m -39.512,4.91 c -1.403,0 -2.571,-0.468 -3.507,-1.403 -0.935,-0.935 -1.402,-2.104 -1.402,-3.507 0,-1.402 0.467,-2.572 1.402,-3.507 0.936,-0.935 2.104,-1.402 3.507,-1.402 1.403,0 2.572,0.467 3.507,1.402 0.935,0.935 1.403,2.105 1.403,3.507 0,1.403 -0.468,2.572 -1.403,3.507 -0.935,0.935 -2.104,1.403 -3.507,1.403 z m -16.132,0 c -2.806,0 -4.91,-2.338 -4.91,-4.91 0,-2.805 2.338,-4.909 4.91,-4.909 2.806,0 4.909,2.337 4.909,4.909 0,2.572 -2.103,4.91 -4.909,4.91 z m -19.639,-1.403 c -0.936,-0.935 -1.403,-2.104 -1.403,-3.507 0,-1.402 0.467,-2.572 1.403,-3.507 0.935,-0.935 2.104,-1.402 3.507,-1.402 1.403,0 2.572,0.467 3.507,1.402 0.935,0.935 1.403,2.105 1.403,3.507 0,1.403 -0.468,2.572 -1.403,3.507 -0.935,0.935 -2.104,1.403 -3.507,1.403 -1.403,0 -2.805,-0.468 -3.507,-1.403 z m 128.589,1.403 c -1.403,0 -2.572,-0.468 -3.507,-1.403 -0.935,-0.935 -1.403,-2.104 -1.403,-3.507 0,-1.402 0.468,-2.572 1.403,-3.507 0.935,-0.935 2.104,-1.402 3.507,-1.402 1.403,0 2.571,0.467 3.507,1.402 0.935,0.935 1.403,2.105 1.403,3.507 0,1.403 -0.468,2.572 -1.403,3.507 -0.936,0.935 -2.104,1.403 -3.507,1.403 z m -16.132,0 c -2.805,0 -4.91,-2.338 -4.91,-4.91 0,-2.805 2.338,-4.909 4.91,-4.909 2.806,0 4.91,2.337 4.91,4.909 0,2.572 -2.338,4.91 -4.91,4.91 z m -16.366,0 c -1.403,0 -2.572,-0.468 -3.507,-1.403 -0.935,-0.935 -1.403,-2.104 -1.403,-3.507 0,-1.402 0.468,-2.572 1.403,-3.507 0.935,-0.935 2.104,-1.402 3.507,-1.402 1.403,0 2.572,0.467 3.507,1.402 0.935,0.935 1.402,2.105 1.402,3.507 0,1.403 -0.467,2.572 -1.402,3.507 -0.935,0.935 -2.104,1.403 -3.507,1.403 z"
     id="path10675"
     style="fill:#ffffff;stroke-width:2.33799" /><text
     xml:space="preserve"
     style="font-style:normal;font-variant:normal;font-weight:normal;font-stretch:normal;font-size:48px;font-family:Times;-inkscape-font-specification:'Times, Normal';font-variant-ligatures:normal;font-variant-caps:normal;font-variant-numeric:normal;font-variant-east-asian:normal;fill:#000000;fill-opacity:1;stroke:#00436d;stroke-width:1;stroke-dasharray:none;stroke-dashoffset:0;stroke-opacity:1"
     x="28494.615"
     y="17450.08"
     id="text12799"><tspan
       sodipodi:role="line"
       id="tspan18455"
       x="28494.615"
       y="17450.08">Data storage: </tspan><tspan
       sodipodi:role="line"
       id="tspan18457"
       x="28494.615"
       y="17510.08">  -Cloud-based platform</tspan></text></g><g
   id="g18558"
   transform="translate(-644.67385,115.92229)"><g
     id="g11076"
     transform="translate(1656.8404,-19.791609)"><ellipse
       style="fill:#000000;fill-opacity:0;stroke:#00436d;stroke-width:13.3626;stroke-dasharray:40.0878, 40.0878;stroke-dashoffset:0;stroke-opacity:1"
       id="ellipse11072"
       cx="28744.875"
       cy="17496.781"
       rx="292.81409"
       ry="292.82159" /><ellipse
       style="fill:#00436d;fill-opacity:1;stroke:#00436d;stroke-width:12.3808;stroke-dasharray:none;stroke-dashoffset:0;stroke-opacity:1"
       id="ellipse11074"
       cx="28757.562"
       cy="17201.822"
       rx="121.2466"
       ry="121.80429" /></g><text
     xml:space="preserve"
     style="font-style:normal;font-variant:normal;font-weight:normal;font-stretch:normal;font-size:37.3333px;font-family:Times;-inkscape-font-specification:'Times, Normal';font-variant-ligatures:normal;font-variant-caps:normal;font-variant-numeric:normal;font-variant-east-asian:normal;fill:#000000;fill-opacity:1;stroke:#00436d;stroke-width:1;stroke-dasharray:none;stroke-dashoffset:0;stroke-opacity:1"
     x="30150.283"
     y="17376.568"
     id="text18226"><tspan
       sodipodi:role="line"
       id="tspan18443"
       x="30150.283"
       y="17376.568">Data types:</tspan><tspan
       sodipodi:role="line"
       id="tspan18445"
       x="30150.283"
       y="17423.234">- cellular neurophysiology data </tspan><tspan
       sodipodi:role="line"
       id="tspan18447"
       x="30150.283"
       y="17469.902">  (electrophysiology, optophysiology, </tspan><tspan
       sodipodi:role="line"
       id="tspan18449"
       x="30150.283"
       y="17516.568">  and behavioral time-series)</tspan><tspan
       sodipodi:role="line"
       id="tspan18451"
       x="30150.283"
       y="17563.234">- images from immunostaining </tspan><tspan
       sodipodi:role="line"
       id="tspan18453"
       x="30150.283"
       y="17609.902">  experiments</tspan></text><g
     id="g18324"
     transform="matrix(1.6323703,0,0,1.6323703,30345.069,17104.432)"
     style="fill:#ffffff"><path
       d="m 19.8,51.8 c -1,0 -1.7,0.8 -1.7,1.7 V 61 c 0,1 0.8,1.7 1.7,1.7 h 5.4 c 1,0 1.7,-0.8 1.7,-1.7 v -7.4 c 0,-1 -0.8,-1.7 -1.7,-1.7 h -5.4 z"
       id="path18310"
       style="fill:#ffffff" /><path
       d="m 32.6,46.1 c -1,0 -1.7,0.8 -1.7,1.7 V 61 c 0,1 0.8,1.7 1.7,1.7 H 38 c 1,0 1.7,-0.8 1.7,-1.7 V 47.8 c 0,-1 -0.8,-1.7 -1.7,-1.7 z"
       id="path18312"
       style="fill:#ffffff" /><path
       d="M 44.6,35.9 58.2,22.3 v 4.4 c 0,1.3 1,2.3 2.3,2.3 1.3,0 2.3,-1 2.3,-2.3 v -9.9 c 0,-1.3 -1,-2.3 -2.3,-2.3 h -9.9 c -1.3,0 -2.3,1 -2.3,2.3 0,1.3 1,2.3 2.3,2.3 H 55 L 43,31 37.4,25.4 c -0.9,-0.9 -2.4,-0.9 -3.3,0 L 18.9,40.6 c -0.9,0.9 -0.9,2.4 0,3.3 0.5,0.5 1,0.7 1.6,0.7 0.6,0 1.2,-0.2 1.6,-0.7 L 35.6,30.4 41.2,36 c 1,0.8 2.5,0.8 3.4,-0.1 z"
       id="path18314"
       style="fill:#ffffff" /><path
       d="m 52.6,42 c 0,-1 -0.8,-1.8 -1.7,-1.8 h -5.4 c -1,0 -1.7,0.8 -1.7,1.8 v 19 c 0,1 0.8,1.7 1.7,1.7 h 1.2 C 47.9,59.1 50,56 52.6,53.4 Z"
       id="path18316"
       style="fill:#ffffff" /><path
       d="m 65.5,36.2 c 0,-1 -0.8,-1.8 -1.7,-1.8 h -5.4 c -1,0 -1.7,0.8 -1.7,1.8 v 14.1 c 2.7,-1.7 5.7,-2.9 8.9,-3.5 V 36.2 Z"
       id="path18318"
       style="fill:#ffffff" /><path
       d="M 45.4,68.9 H 9.5 V 8.3 h 64.7 v 38.5 c 2,0.4 4,1 5.8,1.8 V 8 C 80,5 77.5,2.5 74.5,2.5 H 9.2 C 6.2,2.5 3.7,5 3.7,8 v 61.1 c 0,3 2.5,5.5 5.5,5.5 h 36.4 c -0.2,-1.2 -0.3,-2.4 -0.3,-3.7 0,-0.6 0,-1.3 0.1,-2 z"
       id="path18320"
       style="fill:#ffffff" /><path
       d="M 94.5,88.5 85.2,80.9 C 87,78 88.1,74.7 88.1,71 88.1,60.9 79.9,52.7 69.8,52.7 59.7,52.7 51.6,60.9 51.6,71 c 0,10.1 8.2,18.3 18.3,18.3 3.6,0 7,-1.1 9.9,-2.9 l 7.6,9.3 c 0.2,0.3 0.5,0.5 0.7,0.7 2.2,1.8 5.4,1.4 7.2,-0.7 1.7,-2.2 1.3,-5.4 -0.8,-7.2 z M 57.9,71 c 0,-6.6 5.3,-11.9 11.9,-11.9 6.6,0 11.9,5.3 11.9,11.9 0,6.6 -5.3,11.9 -11.9,11.9 -6.6,0 -11.9,-5.3 -11.9,-11.9 z"
       id="path18322"
       style="fill:#ffffff" /></g></g><g
   id="g18572"
   transform="translate(981.09829,-207.8119)"><g
     id="g18397"
     transform="translate(901.93188,115.92228)"><ellipse
       style="fill:#000000;fill-opacity:0;stroke:#00436d;stroke-width:13.3626;stroke-dasharray:40.0878, 40.0878;stroke-dashoffset:0;stroke-opacity:1"
       id="ellipse18393"
       cx="28744.875"
       cy="17496.781"
       rx="292.81409"
       ry="292.82159" /><ellipse
       style="fill:#00436d;fill-opacity:1;stroke:#00436d;stroke-width:12.3808;stroke-dasharray:none;stroke-dashoffset:0;stroke-opacity:1"
       id="ellipse18395"
       cx="28757.562"
       cy="17201.822"
       rx="121.2466"
       ry="121.80429" /></g><g
     id="g18403"
     transform="matrix(1.4249231,0,0,1.4249231,29582.494,17244.558)"
     style="fill:#ffffff;fill-opacity:1;stroke-width:14.685;stroke-dasharray:none"><path
       d="M 69.431,4.75 H 44.629 L 15.016,34.364 v 45.331 c 0,6.371 5.184,11.555 11.555,11.555 h 42.86 c 6.371,0 11.555,-5.184 11.555,-11.555 V 16.305 C 80.985,9.934 75.802,4.75 69.431,4.75 Z M 44.189,7.311 V 33.924 H 17.577 Z m 35.296,72.384 c 0,5.544 -4.511,10.055 -10.055,10.055 H 26.57 c -5.544,0 -10.055,-4.511 -10.055,-10.055 V 35.424 H 45.689 V 6.25 H 69.43 c 5.544,0 10.055,4.511 10.055,10.055 z"
       id="path18399"
       style="fill:#ffffff;fill-opacity:1;stroke-width:14.685;stroke-dasharray:none" /><path
       d="M 25.551,70.541 H 70.45 V 55.713 H 25.551 Z m 1.5,-13.328 H 68.95 V 69.04 H 27.051 Z"
       id="path18401"
       style="fill:#ffffff;fill-opacity:1;stroke-width:14.685;stroke-dasharray:none" /></g><text
     xml:space="preserve"
     style="font-style:normal;font-variant:normal;font-weight:normal;font-stretch:normal;font-size:48px;font-family:Times;-inkscape-font-specification:'Times, Normal';font-variant-ligatures:normal;font-variant-caps:normal;font-variant-numeric:normal;font-variant-east-asian:normal;fill:#000000;fill-opacity:1;stroke:#00436d;stroke-width:1;stroke-dasharray:none;stroke-dashoffset:0;stroke-opacity:1"
     x="29470.059"
     y="17540.557"
     id="text18409"><tspan
       sodipodi:role="line"
       id="tspan18530"
       x="29470.059"
       y="17540.557">Data File Formats:</tspan><tspan
       sodipodi:role="line"
       id="tspan18532"
       x="29470.059"
       y="17600.557">  - NWB </tspan><tspan
       sodipodi:role="line"
       id="tspan18534"
       x="29470.059"
       y="17660.557">  - BIDS </tspan><tspan
       sodipodi:role="line"
       id="tspan18536"
       x="29470.059"
       y="17720.557">  - NDM</tspan><tspan
       sodipodi:role="line"
       id="tspan18538"
       x="29470.059"
       y="17780.557"></tspan></text></g></g></g>
</svg>
