<?xml version="1.0" encoding="UTF-8" standalone="no"?>
<!-- Generator: Adobe Illustrator 23.0.4, SVG Export Plug-In . SVG Version: 6.00 Build 0)  -->

<svg
   version="1.1"
   id="Layer_1"
   x="0px"
   y="0px"
   viewBox="0 0 1028.6757 960.0033"
   xml:space="preserve"
   sodipodi:docname="dandiset_logo.svg"
   width="1028.6757"
   height="960.0033"
   inkscape:version="1.2 (dc2aeda, 2022-05-15)"
   xmlns:inkscape="http://www.inkscape.org/namespaces/inkscape"
   xmlns:sodipodi="http://sodipodi.sourceforge.net/DTD/sodipodi-0.dtd"
   xmlns="http://www.w3.org/2000/svg"
   xmlns:svg="http://www.w3.org/2000/svg"><defs
   id="defs87" /><sodipodi:namedview
   id="namedview85"
   pagecolor="#ffffff"
   bordercolor="#000000"
   borderopacity="0.25"
   inkscape:showpageshadow="2"
   inkscape:pageopacity="0.0"
   inkscape:pagecheckerboard="0"
   inkscape:deskcolor="#d1d1d1"
   showgrid="false"
   inkscape:zoom="0.35368524"
   inkscape:cx="275.66884"
   inkscape:cy="552.75136"
   inkscape:window-width="1512"
   inkscape:window-height="871"
   inkscape:window-x="0"
   inkscape:window-y="38"
   inkscape:window-maximized="1"
   inkscape:current-layer="Artboard" />
<style
   type="text/css"
   id="style69">
	.st0{fill:#D3868D;}
	.st1{fill:#F0A5AC;}
	.st2{fill:#A05A60;}
	.st3{fill:#FFFFFF;}
	.st4{fill:#00436D;}
</style>
<g
   id="g5477"
   transform="translate(-730.11148,-384.52721)"><g
     id="Artboard"
     transform="translate(-28352.599,-16002.462)">
		
	<path
   style="fill:#000000;fill-opacity:0;stroke-width:5.6822"
   d="m 1838.1928,845.76444 c -119.1285,-5.03835 -222.2476,-23.88514 -248.1058,-45.34558 -5.5183,-4.57973 -7.5934,-23.88558 -7.5934,-70.64543 V 665.4299 l 31.0148,10.67064 c 69.8404,24.02863 143.9925,31.32235 318.4408,31.32235 174.5663,0 248.5944,-7.29169 318.6189,-31.38366 l 31.193,-10.73196 -1.5988,66.52115 -1.5987,66.52116 -20.6708,10.10723 c -61.4139,30.02922 -232.4063,45.22894 -419.7,37.30763 z"
   id="path2645"
   transform="translate(27770,16123)" /><path
   style="fill:#000000;fill-opacity:0;stroke-width:5.6822"
   d="m 1775.6886,1169.9219 c -68.0337,-5.9632 -137.7883,-19.8182 -169.0456,-33.5767 l -24.1494,-10.6299 v -71.955 c 0,-66.39179 0.7689,-71.61983 9.9439,-67.62012 60.2406,26.26092 174.0196,39.49752 339.5117,39.49752 165.492,0 279.271,-13.2366 339.5116,-39.49752 9.1751,-3.99971 9.9439,1.22833 9.9439,67.62012 v 71.955 l -24.1494,10.5965 c -75.6219,33.1821 -304.3326,49.1446 -481.5667,33.6101 z"
   id="path2647"
   transform="translate(27770,16123)" /><path
   style="fill:#000000;fill-opacity:0;stroke-width:5.6822"
   d="m 1775.6886,1169.9219 c -68.0337,-5.9632 -137.7883,-19.8182 -169.0456,-33.5767 l -24.1494,-10.6299 v -71.955 c 0,-66.39179 0.7689,-71.61983 9.9439,-67.62012 60.2406,26.26092 174.0196,39.49752 339.5117,39.49752 165.492,0 279.271,-13.2366 339.5116,-39.49752 9.1751,-3.99971 9.9439,1.22833 9.9439,67.62012 v 71.955 l -24.1494,10.5965 c -75.6219,33.1821 -304.3326,49.1446 -481.5667,33.6101 z"
   id="path2649"
   transform="translate(27770,16123)" /><path
   style="fill:#000000;fill-opacity:0;stroke-width:5.6822"
   d="m 1775.6886,1169.9219 c -68.0337,-5.9632 -137.7883,-19.8182 -169.0456,-33.5767 l -24.1494,-10.6299 v -71.955 c 0,-66.39179 0.7689,-71.61983 9.9439,-67.62012 60.2406,26.26092 174.0196,39.49752 339.5117,39.49752 165.492,0 279.271,-13.2366 339.5116,-39.49752 9.1751,-3.99971 9.9439,1.22833 9.9439,67.62012 v 71.955 l -24.1494,10.5965 c -75.6219,33.1821 -304.3326,49.1446 -481.5667,33.6101 z"
   id="path2651"
   transform="translate(27770,16123)" /><path
   style="fill:#000000;fill-opacity:0;stroke-width:5.6822"
   d="m 1838.1928,845.76444 c -119.1285,-5.03835 -222.2476,-23.88514 -248.1058,-45.34558 -5.5183,-4.57973 -7.5934,-23.88558 -7.5934,-70.64543 V 665.4299 l 31.0148,10.67064 c 69.8404,24.02863 143.9925,31.32235 318.4408,31.32235 174.5663,0 248.5944,-7.29169 318.6189,-31.38366 l 31.193,-10.73196 -1.5988,66.52115 -1.5987,66.52116 -20.6708,10.10723 c -61.4139,30.02922 -232.4063,45.22894 -419.7,37.30763 z"
   id="path2653"
   transform="translate(27770,16123)" /><path
   style="fill:#000000;fill-opacity:0;stroke-width:5.6822"
   d="m 1838.1928,692.69029 c -127.9541,-5.84449 -231.8915,-25.92038 -250.5422,-48.39313 -6.4303,-7.748 -5.9064,-10.33593 3.4821,-17.20098 64.398,-47.089 421.519,-63.10764 599.3567,-26.88412 47.4174,9.65837 90.9153,26.76 90.9153,35.74422 0,37.99341 -224.4604,66.72581 -443.2119,56.73401 z"
   id="path2655"
   transform="translate(27770,16123)" /><path
   style="fill:#000000;fill-opacity:0;stroke-width:5.6822"
   d="m 1838.1928,845.76444 c -119.1285,-5.03835 -222.2476,-23.88514 -248.1058,-45.34558 -5.5183,-4.57973 -7.5934,-23.88558 -7.5934,-70.64543 V 665.4299 l 31.0148,10.67064 c 69.8404,24.02863 143.9925,31.32235 318.4408,31.32235 174.5663,0 248.5944,-7.29169 318.6189,-31.38366 l 31.193,-10.73196 -1.5988,66.52115 -1.5987,66.52116 -20.6708,10.10723 c -61.4139,30.02922 -232.4063,45.22894 -419.7,37.30763 z"
   id="path2657"
   transform="translate(27770,16123)" /><g
   id="g4562"
   transform="matrix(66.345339,0,0,41.130561,29116.206,16647.773)"
   style="fill:#f0a5ac;fill-opacity:1"><ellipse
     cx="9"
     cy="2.8800001"
     rx="6"
     ry="1.88"
     id="ellipse4544"
     style="fill:#f0a5ac;fill-opacity:1" /><path
     d="M 14.91,3.53 C 14.41,4.41 11.91,5.08 9,5.08 6.09,5.08 3.81,4.47 3.17,3.64 A 0.1,0.1 0 0 0 3,3.7 V 7 C 3,8 5.69,8.84 9,8.84 12.31,8.84 15,8 15,7 V 3.55 Z"
     id="path4546"
     style="fill:#f0a5ac;fill-opacity:1" /><path
     d="M 14.91,7.62 C 14.41,8.5 11.91,9.17 9,9.17 6.09,9.17 3.81,8.56 3.17,7.73 A 0.1,0.1 0 0 0 3,7.79 v 3.26 c 0,1 2.69,1.88 6,1.88 3.31,0 6,-0.84 6,-1.88 V 7.64 Z"
     id="path4548"
     style="fill:#f0a5ac;fill-opacity:1" /><path
     d="m 14.91,11.69 c -0.5,0.88 -3,1.55 -5.91,1.55 -2.91,0 -5.19,-0.61 -5.83,-1.44 A 0.1,0.1 0 0 0 3,11.86 v 3.26 C 3,16.16 5.69,17 9,17 c 3.31,0 6,-0.84 6,-1.88 v -3.41 z"
     id="path4550"
     style="fill:#f0a5ac;fill-opacity:1" /></g><g
   id="g5586"
   transform="matrix(0.89517864,0,0,0.83919348,1267.8247,2990.1732)"
   style="image-rendering:auto"><g
     id="Group-5"
     transform="rotate(-40,37930.149,-34399.639)">

					<ellipse
   id="Oval-2"
   transform="rotate(179.99989,368.36285,451.61432)"
   cx="368.39999"
   cy="451.60001"
   rx="367.60001"
   ry="142" />
				<polygon
   id="Rectangle-5"
   points="656.5,83.1 628.7,433.2 127.9,433.2 100.1,83.1 " />

					<ellipse
   id="Oval-2-Copy-3"
   transform="rotate(179.99989,332.50041,93.290328)"
   class="st3"
   cx="332.5"
   cy="93.300003"
   rx="287.89999"
   ry="92.5" />

					<ellipse
   id="Oval-2-Copy-2"
   transform="rotate(179.99989,378.29822,83.112072)"
   cx="378.29999"
   cy="83.099998"
   rx="278.20001"
   ry="82.400002" />
			</g></g><text
   xml:space="preserve"
   style="fill:#000000;fill-opacity:0"
   x="30803.533"
   y="17051.141"
   id="text5691"><tspan
     sodipodi:role="line"
     id="tspan5689"
     x="30803.533"
     y="17051.141">Dan</tspan></text><text
   xml:space="preserve"
   style="fill:#000000;fill-opacity:0"
   x="30818.068"
   y="17243.678"
   id="text5699"><tspan
     sodipodi:role="line"
     id="tspan5697"
     x="30818.068"
     y="17243.678">DanDi</tspan></text><text
   xml:space="preserve"
   style="font-style:normal;font-variant:normal;font-weight:normal;font-stretch:normal;font-size:53.3333px;font-family:sans-serif;-inkscape-font-specification:'sans-serif, Normal';font-variant-ligatures:normal;font-variant-caps:normal;font-variant-numeric:normal;font-variant-east-asian:normal;fill:#000000;fill-opacity:0"
   x="30540.986"
   y="16720.615"
   id="text5757"><tspan
     sodipodi:role="line"
     id="tspan5755"
     x="30540.986"
     y="16720.615">rrrrrr</tspan></text><text
   xml:space="preserve"
   style="font-style:normal;font-variant:normal;font-weight:normal;font-stretch:normal;font-size:53.3333px;font-family:sans-serif;-inkscape-font-specification:'sans-serif, Normal';font-variant-ligatures:normal;font-variant-caps:normal;font-variant-numeric:normal;font-variant-east-asian:normal;fill:#000000;fill-opacity:0"
   x="30524.021"
   y="16723.441"
   id="text5761"><tspan
     sodipodi:role="line"
     id="tspan5759"
     x="30524.021"
     y="16723.441">sssssss</tspan></text><text
   xml:space="preserve"
   style="font-style:normal;font-variant:normal;font-weight:bold;font-stretch:normal;font-size:106.667px;font-family:sans-serif;-inkscape-font-specification:'sans-serif, Bold';font-variant-ligatures:normal;font-variant-caps:normal;font-variant-numeric:normal;font-variant-east-asian:normal;white-space:pre;inline-size:790.232;fill:#00436d;fill-opacity:1"
   x="29393.07"
   y="17291.744"
   id="text5753"
   transform="translate(11.309491,-152.67813)"><tspan
     x="29393.07"
     y="17291.744"
     id="tspan6280">DANDISET</tspan></text></g></g>
</svg>
